<?xml version="1.0" standalone="no"?>
<!DOCTYPE svg PUBLIC "-//W3C//DTD SVG 20010904//EN"
 "http://www.w3.org/TR/2001/REC-SVG-20010904/DTD/svg10.dtd">
<svg version="1.0" xmlns="http://www.w3.org/2000/svg"
 width="208.000000pt" height="208.000000pt" viewBox="0 0 208.000000 208.000000"
 preserveAspectRatio="xMidYMid meet">

<g transform="translate(0.000000,208.000000) scale(0.100000,-0.100000)"
fill="#000000" stroke="none">
<path d="M1500 1340 c0 -5 7 -7 15 -4 8 4 15 8 15 10 0 2 -7 4 -15 4 -8 0 -15
-4 -15 -10z"/>
<path d="M1467 1313 c-4 -3 -7 -17 -7 -30 0 -29 -7 -29 -31 0 -19 20 -19 20
-10 1 5 -11 17 -26 25 -33 12 -10 16 -6 25 25 11 38 10 50 -2 37z"/>
<path d="M1362 1280 c14 -19 35 -53 47 -75 12 -22 19 -31 15 -20 -4 11 -7 27
-8 35 -1 8 -19 33 -40 55 -39 39 -39 39 -14 5z"/>
<path d="M500 1297 c0 -2 15 -16 33 -33 l32 -29 -29 33 c-28 30 -36 37 -36 29z"/>
<path d="M643 1248 c-13 -19 -43 -88 -38 -88 3 0 16 23 30 50 24 48 28 64 8
38z"/>
<path d="M1430 1155 c0 -5 5 -17 10 -25 5 -8 10 -10 10 -5 0 6 -5 17 -10 25
-5 8 -10 11 -10 5z"/>
<path d="M584 1121 c3 -5 -16 -6 -42 -4 l-47 5 29 -17 c16 -8 36 -13 43 -11 7
3 13 -2 13 -11 0 -22 6 -14 14 20 4 17 2 27 -4 27 -6 0 -9 -4 -6 -9z"/>
<path d="M1260 1086 c0 -8 4 -17 9 -20 5 -4 7 3 4 14 -6 23 -13 26 -13 6z"/>
<path d="M571 1034 c0 -11 3 -14 6 -6 3 7 2 16 -1 19 -3 4 -6 -2 -5 -13z"/>
<path d="M541 962 c-17 -25 -19 -32 -7 -23 15 13 19 13 27 0 6 -10 9 -3 9 24
0 20 -1 37 -2 37 -2 0 -14 -17 -27 -38z"/>
<path d="M1465 989 c-4 -6 -5 -12 -2 -15 2 -3 7 2 10 11 7 17 1 20 -8 4z"/>
<path d="M781 974 c0 -11 3 -14 6 -6 3 7 2 16 -1 19 -3 4 -6 -2 -5 -13z"/>
<path d="M1431 974 c0 -11 3 -14 6 -6 3 7 2 16 -1 19 -3 4 -6 -2 -5 -13z"/>
<path d="M1230 953 c-57 -9 -70 -14 -81 -34 -10 -19 -9 -20 11 -14 15 5 20 4
16 -4 -4 -6 0 -11 8 -11 9 0 16 -4 16 -10 0 -5 -5 -10 -11 -10 -13 0 -2 -39
19 -62 8 -10 20 -18 26 -18 6 0 0 7 -12 16 -12 8 -22 24 -22 35 0 18 2 19 21
6 16 -12 26 -12 51 -3 28 10 30 13 24 54 -4 33 -2 42 9 42 19 0 36 -34 29 -57
-5 -17 -5 -17 6 0 7 11 10 29 7 43 -2 13 0 21 4 18 5 -3 9 0 9 5 0 11 -76 13
-130 4z m20 -97 c-8 -8 -13 -7 -20 4 -12 20 -1 33 16 19 11 -9 12 -15 4 -23z
m35 14 c3 -5 1 -10 -4 -10 -6 0 -11 5 -11 10 0 6 2 10 4 10 3 0 8 -4 11 -10z"/>
<path d="M872 870 c-48 -11 -112 -57 -112 -80 0 -10 -4 -22 -10 -25 -5 -3 -10
-12 -10 -18 0 -7 7 -3 15 7 14 19 15 19 37 0 13 -10 17 -12 11 -4 -19 21 -16
48 7 60 14 7 20 7 20 0 0 -5 7 -10 15 -10 11 0 14 -7 10 -23 -4 -16 0 -29 16
-42 l22 -20 -16 26 c-21 31 -11 45 16 22 18 -17 19 -17 33 1 7 10 11 23 8 27
-3 5 -1 9 5 9 5 0 12 -8 15 -17 2 -10 4 2 3 27 -2 43 -19 70 -42 69 -5 -1 -25
-5 -43 -9z m48 -86 c0 -16 -16 -19 -25 -4 -8 13 4 32 16 25 5 -4 9 -13 9 -21z"/>
<path d="M625 840 c3 -5 8 -10 11 -10 2 0 4 5 4 10 0 6 -5 10 -11 10 -5 0 -7
-4 -4 -10z"/>
<path d="M640 815 c0 -5 9 -23 20 -40 26 -39 26 -25 0 17 -11 18 -20 29 -20
23z"/>
<path d="M908 713 c7 -3 16 -2 19 1 4 3 -2 6 -13 5 -11 0 -14 -3 -6 -6z"/>
<path d="M780 705 c0 -5 5 -17 10 -25 5 -8 10 -10 10 -5 0 6 -5 17 -10 25 -5
8 -10 11 -10 5z"/>
<path d="M1255 618 l-50 -53 53 50 c48 46 57 55 49 55 -1 0 -25 -24 -52 -52z"/>
<path d="M678 643 c7 -3 16 -2 19 1 4 3 -2 6 -13 5 -11 0 -14 -3 -6 -6z"/>
<path d="M1072 618 c-14 -14 -16 -44 -3 -52 5 -4 7 3 4 14 -3 11 0 27 7 35 15
18 9 20 -8 3z"/>
<path d="M1132 616 c7 -8 15 -12 17 -11 5 6 -10 25 -20 25 -5 0 -4 -6 3 -14z"/>
<path d="M820 601 c0 -6 4 -13 10 -16 6 -3 7 1 4 9 -7 18 -14 21 -14 7z"/>
<path d="M1209 509 l-24 -20 28 17 c15 9 27 18 27 20 0 8 -8 4 -31 -17z"/>
</g>
</svg>
